<mxfile host="app.diagrams.net" modified="2024-03-14T08:46:23.492Z" agent="Mozilla/5.0 (Windows NT 10.0; Win64; x64) AppleWebKit/537.36 (KHTML, like Gecko) Chrome/121.0.0.0 Safari/537.36" version="24.0.6" etag="6-MkF1aCFp187Kkd_glD" type="github">
  <diagram name="Page-1" id="SWkilHev1Ug-nOd2_Ok5">
    <mxGraphModel>
      <root>
        <mxCell id="0" />
        <mxCell id="1" parent="0" />
      </root>
    </mxGraphModel>
  </diagram>
</mxfile>
